Coordinates
version=1
nRows=14
nColumns=24
inDegrees=yes

Units are S.I. units (second, meters, Newtons, ...)
Angles are in degrees.

endheader
time	pelvis_tilt	pelvis_list	pelvis_rotation	pelvis_tx	pelvis_ty	pelvis_tz	hip_flexion_r	hip_adduction_r	hip_rotation_r	knee_angle_r	ankle_angle_r	subtalar_angle_r	mtp_angle_r	hip_flexion_l	hip_adduction_l	hip_rotation_l	knee_angle_l	ankle_angle_l	subtalar_angle_l	mtp_angle_l	lumbar_extension	lumbar_bending	lumbar_rotation
      0.75900000	      1.93617177	      1.28876069	     11.09907093	      0.03830410	      0.99210950	      0.22230848	     26.37832139	     -5.28123764	    -10.95105916	     -0.68785009	      8.41789077	     -5.31660446	      4.91193650	    -22.27926236	      0.76327885	     13.61503661	     -8.85883441	     15.99486729	     -4.89424960	     -2.01250557	     -5.14443865	     -2.75970364	     -9.65326373
      0.76316667	      1.95140109	      1.21255754	     11.33425835	      0.04463181	      0.99151716	      0.22262775	     26.37573233	     -5.27192990	    -10.96280057	     -1.40378582	      8.50857325	     -5.61538627	      4.91613342	    -22.45666097	      0.51290724	     13.62099052	     -9.19028936	     15.82120336	     -4.75148649	     -2.01214978	     -5.06310891	     -2.68331491	     -9.72093508
      0.76733333	      1.95662815	      1.13325603	     11.55420812	      0.05104774	      0.99091153	      0.22301709	     26.33217038	     -5.23035799	    -10.79331863	     -2.01286003	      8.39272297	     -6.24146710	      4.94114053	    -22.60299550	      0.25425876	     13.48852616	     -9.56194898	     15.72396889	     -4.35480961	     -1.96658515	     -4.92929812	     -2.57312481	    -10.11295002
      0.77150000	      1.98538087	      1.04871356	     11.78971905	      0.05747497	      0.99038122	      0.22338553	     26.28558067	     -5.19318451	    -10.83568410	     -2.68265190	      8.36110045	     -6.55343282	      4.95020525	    -22.77984665	     -0.01218035	     13.50100279	     -9.91763950	     15.50099218	     -4.26049599	     -1.95465132	     -4.86029734	     -2.49858129	    -10.15103181
      0.77566667	      2.02832772	      0.94029232	     12.01639178	      0.06400881	      0.98988174	      0.22381945	     26.14453093	     -5.08961510	    -10.64240361	     -3.16588497	      7.99076842	     -7.38283272	      5.02714718	    -22.95182863	     -0.31715671	     13.36961857	    -10.30346052	     15.32565055	     -3.94485088	     -1.82188226	     -4.75456239	     -2.35355378	    -10.49887799
      0.77983333	      2.04662137	      0.82101625	     12.22886914	      0.07060213	      0.98937568	      0.22429069	     26.05711866	     -4.97749169	    -10.57848353	     -3.70312707	      7.66007224	     -7.96759651	      5.12537836	    -23.10773426	     -0.62259354	     13.29723717	    -10.65982863	     15.06466371	     -3.73810989	     -1.66475484	     -4.61791606	     -2.22055407	    -10.66778730
      0.78400000	      2.08637983	      0.69573101	     12.43995390	      0.07723405	      0.98891955	      0.22478431	     25.93558145	     -4.84651958	    -10.52791268	     -4.20703221	      7.26501225	     -8.55843998	      5.24405416	    -23.27594348	     -0.94043306	     13.21583745	    -11.03387659	     14.78001087	     -3.55268779	     -1.47794209	     -4.50355430	     -2.08215598	    -10.84682276
      0.78816667	      2.11044014	      0.56165091	     12.64692507	      0.08391427	      0.98847063	      0.22532044	     25.82085844	     -4.69692541	    -10.47123693	     -4.67420519	      6.77664720	     -9.20374522	      5.40258174	    -23.41083806	     -1.26473602	     13.11662639	    -11.43391327	     14.46763775	     -3.36682594	     -1.23221001	     -4.36871863	     -1.94777978	    -11.02127760
      0.79233333	      2.16594921	      0.41225610	     12.84787087	      0.09063320	      0.98808618	      0.22586735	     25.66491614	     -4.51659538	    -10.42911044	     -5.10583553	      6.20577802	     -9.86823271	      5.60272099	    -23.56910159	     -1.61126538	     12.98692507	    -11.84151141	     14.12438386	     -3.18613966	     -0.92375025	     -4.24826684	     -1.78459833	    -11.18071456
      0.79650000	      2.20390654	      0.26504449	     13.04182404	      0.09738753	      0.98771371	      0.22648401	     25.52524240	     -4.32818378	    -10.37342500	     -5.51580618	      5.55524342	    -10.58069668	      5.89550941	    -23.69474561	     -1.95504049	     12.84278637	    -12.26700352	     13.72195898	     -2.98588086	     -0.47788502	     -4.11489729	     -1.66187826	    -11.32908709
      0.80066667	      2.22248634	      0.09636498	     13.20898074	      0.10419153	      0.98731869	      0.22711288	     25.43656214	     -4.12126846	    -10.40064333	     -5.95931077	      4.80977682	    -11.11899167	      8.31048928	    -23.78599574	     -2.30762642	     12.62878183	    -12.70531735	     13.25410315	     -2.72972069	      3.15775874	     -3.93358536	     -1.49296104	    -11.28232541
      0.80483333	      2.28166804	     -0.09424165	     13.37262231	      0.11104630	      0.98702112	      0.22775506	     25.29723939	     -3.87247549	    -10.41768227	     -6.37390238	      4.06146250	    -11.72995568	      8.33929142	    -23.93205320	     -2.68235145	     12.50225400	    -13.11525028	     12.74009429	     -2.70633738	      3.24179534	     -3.79346648	     -1.28819592	    -11.54947067
      0.80900000	      2.32132814	     -0.29223355	     13.51450702	      0.11791998	      0.98671838	      0.22847136	     25.18929676	     -3.60420422	    -10.38817457	     -6.78482579	      3.21730917	    -12.39573201	      8.41127896	    -24.03037683	     -3.05791748	     12.29602563	    -13.57028484	     12.24622255	     -2.56168671	      3.40386214	     -3.62438950	     -1.09040556	    -11.64255708
      0.81316667	      2.36605971	     -0.48990396	     13.63001496	      0.12479740	      0.98645028	      0.22923366	     25.09269718	     -3.32314396	    -10.32701548	     -7.21371095	      2.32679308	    -13.05623370	      8.55884306	    -24.12230905	     -3.42393711	     12.06412065	    -14.04151431	     11.69610367	     -2.37740882	      3.70682482	     -3.47566545	     -0.89448388	    -11.71829569
